<?xml version="1.0" encoding="utf-8"?>
<svg version="1.1" xmlns:xlink="http://www.w3.org/1999/xlink" width="3px" height="5px" xmlns="http://www.w3.org/2000/svg">
  <defs>
    <mask fill="white" id="clip22">
      <path d="M 0 2.5  C 0 3.8807118745  0.6715728753 5  1.5 5  C 2.3284271247 5  3 3.8807118745  3 2.5  C 3 1.1192881255  2.3284271247 0  1.5 0  C 0.6715728753 0  0 1.1192881255  0 2.5  Z " fill-rule="evenodd" />
    </mask>
  </defs>
  <g transform="matrix(1 0 0 1 -20143 -981 )">
    <path d="M 0 2.5  C 0 3.8807118745  0.6715728753 5  1.5 5  C 2.3284271247 5  3 3.8807118745  3 2.5  C 3 1.1192881255  2.3284271247 0  1.5 0  C 0.6715728753 0  0 1.1192881255  0 2.5  Z " fill-rule="nonzero" fill="#5b8ff9" stroke="none" transform="matrix(1 0 0 1 20143 981 )" />
    <path d="M 0 2.5  C 0 3.8807118745  0.6715728753 5  1.5 5  C 2.3284271247 5  3 3.8807118745  3 2.5  C 3 1.1192881255  2.3284271247 0  1.5 0  C 0.6715728753 0  0 1.1192881255  0 2.5  Z " stroke-width="2" stroke="#ffffff" fill="none" stroke-opacity="0.949019607843137" transform="matrix(1 0 0 1 20143 981 )" mask="url(#clip22)" />
  </g>
</svg>