<?xml version="1.0" encoding="utf-8"?>
<svg version="1.1" xmlns:xlink="http://www.w3.org/1999/xlink" width="10px" height="9px" xmlns="http://www.w3.org/2000/svg">
  <defs>
    <mask fill="white" id="clip33">
      <path d="M 0 4.5  C 0 6.9852813741  2.238576251 9  5 9  C 7.761423749 9  10 6.9852813741  10 4.5  C 10 2.0147186259  7.761423749 0  5 0  C 2.238576251 0  0 2.0147186259  0 4.5  Z " fill-rule="evenodd" />
    </mask>
  </defs>
  <g transform="matrix(1 0 0 1 -983 -846 )">
    <path d="M 0 4.5  C 0 6.9852813741  2.238576251 9  5 9  C 7.761423749 9  10 6.9852813741  10 4.5  C 10 2.0147186259  7.761423749 0  5 0  C 2.238576251 0  0 2.0147186259  0 4.5  Z " fill-rule="nonzero" fill="#f6bd16" stroke="none" transform="matrix(1 0 0 1 983 846 )" />
    <path d="M 0 4.5  C 0 6.9852813741  2.238576251 9  5 9  C 7.761423749 9  10 6.9852813741  10 4.5  C 10 2.0147186259  7.761423749 0  5 0  C 2.238576251 0  0 2.0147186259  0 4.5  Z " stroke-width="2" stroke="#000000" fill="none" stroke-opacity="0.850980392156863" transform="matrix(1 0 0 1 983 846 )" mask="url(#clip33)" />
  </g>
</svg>