<?xml version="1.0" encoding="utf-8"?>
<svg version="1.1" xmlns:xlink="http://www.w3.org/1999/xlink" width="1797px" height="516px" xmlns="http://www.w3.org/2000/svg">
  <defs>
    <mask fill="white" id="clip19">
      <path d="M 0 487.705685618729  L 0 8.2943143812709  C 0 3.6494983277592  11.1220483641536 0  25.2773826458037 0  L 628.564248458988 0  L 1751.7226173542 0  C 1765.87795163585 0  1777 3.6494983277592  1777 8.2943143812709  L 1777 487.705685618729  C 1777 492.350501672241  1765.87795163585 496  1751.7226173542 496  L 25.2773826458037 496  C 11.1220483641536 496  0 492.350501672241  0 487.705685618729  Z " fill-rule="evenodd" />
    </mask>
    <filter x="21px" y="570px" width="1797px" height="516px" filterUnits="userSpaceOnUse" id="filter20">
      <feOffset dx="0" dy="0" in="SourceAlpha" result="shadowOffsetInner" />
      <feGaussianBlur stdDeviation="5" in="shadowOffsetInner" result="shadowGaussian" />
      <feComposite in2="shadowGaussian" operator="atop" in="SourceAlpha" result="shadowComposite" />
      <feColorMatrix type="matrix" values="0 0 0 0 0.666666666666667  0 0 0 0 0.666666666666667  0 0 0 0 0.666666666666667  0 0 0 0.349019607843137 0  " in="shadowComposite" />
    </filter>
    <g id="widget21">
      <path d="M 0 487.705685618729  L 0 8.2943143812709  C 0 3.6494983277592  11.1220483641536 0  25.2773826458037 0  L 628.564248458988 0  L 1751.7226173542 0  C 1765.87795163585 0  1777 3.6494983277592  1777 8.2943143812709  L 1777 487.705685618729  C 1777 492.350501672241  1765.87795163585 496  1751.7226173542 496  L 25.2773826458037 496  C 11.1220483641536 496  0 492.350501672241  0 487.705685618729  Z " fill-rule="nonzero" fill="#ffffff" stroke="none" transform="matrix(1 0 0 1 31 580 )" />
      <path d="M 0 487.705685618729  L 0 8.2943143812709  C 0 3.6494983277592  11.1220483641536 0  25.2773826458037 0  L 628.564248458988 0  L 1751.7226173542 0  C 1765.87795163585 0  1777 3.6494983277592  1777 8.2943143812709  L 1777 487.705685618729  C 1777 492.350501672241  1765.87795163585 496  1751.7226173542 496  L 25.2773826458037 496  C 11.1220483641536 496  0 492.350501672241  0 487.705685618729  Z " stroke-width="2" stroke="#d7d7d7" fill="none" transform="matrix(1 0 0 1 31 580 )" mask="url(#clip19)" />
    </g>
  </defs>
  <g transform="matrix(1 0 0 1 -21 -570 )">
    <use xlink:href="#widget21" filter="url(#filter20)" />
    <use xlink:href="#widget21" />
  </g>
</svg>