<?xml version="1.0" encoding="utf-8"?>
<svg version="1.1" xmlns:xlink="http://www.w3.org/1999/xlink" width="23px" height="22px" xmlns="http://www.w3.org/2000/svg">
  <g transform="matrix(1 0 0 1 -20370 -147 )">
    <path d="M 14.10546875 13.4921875  C 15.3172075320513 12.3331330128205  15.9230769230769 10.9383012820513  15.9230769230769 9.30769230769231  C 15.9230769230769 7.67708333333333  15.3172075320513 6.2822516025641  14.10546875 5.12319711538462  C 12.8937299679487 3.96414262820513  11.4354967948718 3.38461538461539  9.73076923076923 3.38461538461539  C 8.02604166666667 3.38461538461539  6.56780849358974 3.96414262820513  5.35606971153846 5.12319711538462  C 4.14433092948718 6.2822516025641  3.53846153846154 7.67708333333333  3.53846153846154 9.30769230769231  C 3.53846153846154 10.9383012820513  4.14433092948718 12.3331330128205  5.35606971153846 13.4921875  C 6.56780849358974 14.6512419871795  8.02604166666667 15.2307692307692  9.73076923076923 15.2307692307692  C 11.4354967948718 15.2307692307692  12.8937299679487 14.6512419871795  14.10546875 13.4921875  Z M 22.4885817307692 19.1177884615385  C 22.8295272435897 19.4439102564103  23 19.8405448717949  23 20.3076923076923  C 23 20.7660256410256  22.8249198717949 21.1626602564103  22.4747596153846 21.4975961538462  C 22.1245993589744 21.8325320512821  21.7099358974359 22  21.2307692307692 22  C 20.7331730769231 22  20.3185096153846 21.8325320512821  19.9867788461538 21.4975961538462  L 15.2457932692308 16.9759615384615  C 13.5963541666667 18.0689102564103  11.7580128205128 18.6153846153846  9.73076923076923 18.6153846153846  C 8.4130608974359 18.6153846153846  7.15294471153846 18.3707932692308  5.95042067307692 17.8816105769231  C 4.74789663461539 17.3924278846154  3.71123798076923 16.7313701923077  2.84044471153846 15.8984375  C 1.96965144230769 15.0655048076923  1.27854567307692 14.0739182692308  0.767127403846154 12.9236778846154  C 0.255709134615385 11.7734375  0 10.568108974359  0 9.30769230769231  C 0 8.04727564102564  0.255709134615385 6.84194711538462  0.767127403846154 5.69170673076923  C 1.27854567307692 4.54146634615385  1.96965144230769 3.54987980769231  2.84044471153846 2.71694711538462  C 3.71123798076923 1.88401442307692  4.74789663461539 1.22295673076923  5.95042067307692 0.733774038461539  C 7.15294471153846 0.244591346153846  8.4130608974359 0  9.73076923076923 0  C 11.0484775641026 0  12.30859375 0.244591346153846  13.5111177884615 0.733774038461539  C 14.7136418269231 1.22295673076923  15.7503004807692 1.88401442307692  16.62109375 2.71694711538462  C 17.4918870192308 3.54987980769231  18.1829927884615 4.54146634615385  18.6944110576923 5.69170673076923  C 19.2058293269231 6.84194711538462  19.4615384615385 8.04727564102564  19.4615384615385 9.30769230769231  C 19.4615384615385 11.2467948717949  18.8902243589744 13.0052083333333  17.7475961538462 14.5829326923077  L 22.4885817307692 19.1177884615385  Z " fill-rule="nonzero" fill="#7f7f7f" stroke="none" transform="matrix(1 0 0 1 20370 147 )" />
  </g>
</svg>