<?xml version="1.0" encoding="utf-8"?>
<svg version="1.1" xmlns:xlink="http://www.w3.org/1999/xlink" width="43px" height="35px" xmlns="http://www.w3.org/2000/svg">
  <defs>
    <mask fill="white" id="clip28">
      <path d="M 0 32  L 0 3  C 0 1.31999999999999  0.886874999999995 0  2.015625 0  L 23.1973684210526 0  L 40.984375 0  C 42.113125 0  43 1.31999999999999  43 3  L 43 32  C 43 33.68  42.113125 35  40.984375 35  L 2.015625 35  C 0.886874999999995 35  0 33.68  0 32  Z " fill-rule="evenodd" />
    </mask>
  </defs>
  <g transform="matrix(1 0 0 1 -165 -189 )">
    <path d="M 0 32  L 0 3  C 0 1.31999999999999  0.886874999999995 0  2.015625 0  L 23.1973684210526 0  L 40.984375 0  C 42.113125 0  43 1.31999999999999  43 3  L 43 32  C 43 33.68  42.113125 35  40.984375 35  L 2.015625 35  C 0.886874999999995 35  0 33.68  0 32  Z " fill-rule="nonzero" fill="#ffffff" stroke="none" transform="matrix(1 0 0 1 165 189 )" />
    <path d="M 0 32  L 0 3  C 0 1.31999999999999  0.886874999999995 0  2.015625 0  L 23.1973684210526 0  L 40.984375 0  C 42.113125 0  43 1.31999999999999  43 3  L 43 32  C 43 33.68  42.113125 35  40.984375 35  L 2.015625 35  C 0.886874999999995 35  0 33.68  0 32  Z " stroke-width="2" stroke="#797979" fill="none" transform="matrix(1 0 0 1 165 189 )" mask="url(#clip28)" />
  </g>
</svg>