<?xml version="1.0" encoding="utf-8"?>
<svg version="1.1" xmlns:xlink="http://www.w3.org/1999/xlink" width="101px" height="35px" xmlns="http://www.w3.org/2000/svg">
  <defs>
    <mask fill="white" id="clip29">
      <path d="M 0 32  L 0 3  C 0 1.31999999999999  2.08312499999999 0  4.734375 0  L 54.4868421052631 0  L 96.265625 0  C 98.916875 0  101 1.31999999999999  101 3  L 101 32  C 101 33.68  98.916875 35  96.265625 35  L 4.734375 35  C 2.08312499999999 35  0 33.68  0 32  Z " fill-rule="evenodd" />
    </mask>
  </defs>
  <g transform="matrix(1 0 0 1 -56 -189 )">
    <path d="M 0 32  L 0 3  C 0 1.31999999999999  2.08312499999999 0  4.734375 0  L 54.4868421052631 0  L 96.265625 0  C 98.916875 0  101 1.31999999999999  101 3  L 101 32  C 101 33.68  98.916875 35  96.265625 35  L 4.734375 35  C 2.08312499999999 35  0 33.68  0 32  Z " fill-rule="nonzero" fill="#344cb7" stroke="none" transform="matrix(1 0 0 1 56 189 )" />
    <path d="M 0 32  L 0 3  C 0 1.31999999999999  2.08312499999999 0  4.734375 0  L 54.4868421052631 0  L 96.265625 0  C 98.916875 0  101 1.31999999999999  101 3  L 101 32  C 101 33.68  98.916875 35  96.265625 35  L 4.734375 35  C 2.08312499999999 35  0 33.68  0 32  Z " stroke-width="2" stroke="#797979" fill="none" transform="matrix(1 0 0 1 56 189 )" mask="url(#clip29)" />
  </g>
</svg>