<?xml version="1.0" encoding="utf-8"?>
<svg version="1.1" xmlns:xlink="http://www.w3.org/1999/xlink" width="1822px" height="698px" xmlns="http://www.w3.org/2000/svg">
  <defs>
    <mask fill="white" id="clip7">
      <path d="M 0 666.66220735786  L 0 11.3377926421405  C 0 4.98862876254181  11.278520625889 0  25.6330014224751 0  L 637.407302038884 0  L 1776.36699857753 0  C 1790.72147937411 0  1802 4.98862876254181  1802 11.3377926421405  L 1802 666.66220735786  C 1802 673.011371237458  1790.72147937411 678  1776.36699857753 678  L 25.6330014224751 678  C 11.278520625889 678  0 673.011371237458  0 666.66220735786  Z " fill-rule="evenodd" />
    </mask>
    <filter x="3px" y="1803px" width="1822px" height="698px" filterUnits="userSpaceOnUse" id="filter8">
      <feOffset dx="0" dy="0" in="SourceAlpha" result="shadowOffsetInner" />
      <feGaussianBlur stdDeviation="5" in="shadowOffsetInner" result="shadowGaussian" />
      <feComposite in2="shadowGaussian" operator="atop" in="SourceAlpha" result="shadowComposite" />
      <feColorMatrix type="matrix" values="0 0 0 0 0.666666666666667  0 0 0 0 0.666666666666667  0 0 0 0 0.666666666666667  0 0 0 0.349019607843137 0  " in="shadowComposite" />
    </filter>
    <g id="widget9">
      <path d="M 0 666.66220735786  L 0 11.3377926421405  C 0 4.98862876254181  11.278520625889 0  25.6330014224751 0  L 637.407302038884 0  L 1776.36699857753 0  C 1790.72147937411 0  1802 4.98862876254181  1802 11.3377926421405  L 1802 666.66220735786  C 1802 673.011371237458  1790.72147937411 678  1776.36699857753 678  L 25.6330014224751 678  C 11.278520625889 678  0 673.011371237458  0 666.66220735786  Z " fill-rule="nonzero" fill="#ffffff" stroke="none" transform="matrix(1 0 0 1 13 1813 )" />
      <path d="M 0 666.66220735786  L 0 11.3377926421405  C 0 4.98862876254181  11.278520625889 0  25.6330014224751 0  L 637.407302038884 0  L 1776.36699857753 0  C 1790.72147937411 0  1802 4.98862876254181  1802 11.3377926421405  L 1802 666.66220735786  C 1802 673.011371237458  1790.72147937411 678  1776.36699857753 678  L 25.6330014224751 678  C 11.278520625889 678  0 673.011371237458  0 666.66220735786  Z " stroke-width="2" stroke="#d7d7d7" fill="none" transform="matrix(1 0 0 1 13 1813 )" mask="url(#clip7)" />
    </g>
  </defs>
  <g transform="matrix(1 0 0 1 -3 -1803 )">
    <use xlink:href="#widget9" filter="url(#filter8)" />
    <use xlink:href="#widget9" />
  </g>
</svg>