<?xml version="1.0" encoding="utf-8"?>
<svg version="1.1" xmlns:xlink="http://www.w3.org/1999/xlink" width="1795px" height="211px" xmlns="http://www.w3.org/2000/svg">
  <defs>
    <mask fill="white" id="clip30">
      <path d="M 0 187.80602006689  L 0 3.19397993311037  C 0 1.40535117056856  11.1095305832148 0  25.24893314367 0  L 627.856804172597 0  L 1749.75106685633 0  C 1763.89046941679 0  1775 1.40535117056856  1775 3.19397993311037  L 1775 187.80602006689  C 1775 189.594648829431  1763.89046941679 191  1749.75106685633 191  L 25.24893314367 191  C 11.1095305832148 191  0 189.594648829431  0 187.80602006689  Z " fill-rule="evenodd" />
    </mask>
    <filter x="26px" y="350px" width="1795px" height="211px" filterUnits="userSpaceOnUse" id="filter31">
      <feOffset dx="0" dy="0" in="SourceAlpha" result="shadowOffsetInner" />
      <feGaussianBlur stdDeviation="5" in="shadowOffsetInner" result="shadowGaussian" />
      <feComposite in2="shadowGaussian" operator="atop" in="SourceAlpha" result="shadowComposite" />
      <feColorMatrix type="matrix" values="0 0 0 0 0.666666666666667  0 0 0 0 0.666666666666667  0 0 0 0 0.666666666666667  0 0 0 0.349019607843137 0  " in="shadowComposite" />
    </filter>
    <g id="widget32">
      <path d="M 0 187.80602006689  L 0 3.19397993311037  C 0 1.40535117056856  11.1095305832148 0  25.24893314367 0  L 627.856804172597 0  L 1749.75106685633 0  C 1763.89046941679 0  1775 1.40535117056856  1775 3.19397993311037  L 1775 187.80602006689  C 1775 189.594648829431  1763.89046941679 191  1749.75106685633 191  L 25.24893314367 191  C 11.1095305832148 191  0 189.594648829431  0 187.80602006689  Z " fill-rule="nonzero" fill="#ffffff" stroke="none" transform="matrix(1 0 0 1 36 360 )" />
      <path d="M 0 187.80602006689  L 0 3.19397993311037  C 0 1.40535117056856  11.1095305832148 0  25.24893314367 0  L 627.856804172597 0  L 1749.75106685633 0  C 1763.89046941679 0  1775 1.40535117056856  1775 3.19397993311037  L 1775 187.80602006689  C 1775 189.594648829431  1763.89046941679 191  1749.75106685633 191  L 25.24893314367 191  C 11.1095305832148 191  0 189.594648829431  0 187.80602006689  Z " stroke-width="2" stroke="#d7d7d7" fill="none" transform="matrix(1 0 0 1 36 360 )" mask="url(#clip30)" />
    </g>
  </defs>
  <g transform="matrix(1 0 0 1 -26 -350 )">
    <use xlink:href="#widget32" filter="url(#filter31)" />
    <use xlink:href="#widget32" />
  </g>
</svg>