<?xml version="1.0" encoding="utf-8"?>
<svg version="1.1" xmlns:xlink="http://www.w3.org/1999/xlink" width="16px" height="38px" xmlns="http://www.w3.org/2000/svg">
  <g transform="matrix(1 0 0 1 -792 -1919 )">
    <path d="M 15.703125 22.9673295454545  C 15.9010416666667 23.3091856060606  16 23.7140151515151  16 24.1818181818182  C 16 24.6496212121212  15.9010416666667 25.0544507575758  15.703125 25.3963068181818  L 8.703125 37.4872159090909  C 8.50520833333333 37.829071969697  8.27083333333333 38  8 38  C 7.72916666666667 38  7.49479166666667 37.829071969697  7.296875 37.4872159090909  L 0.296875 25.3963068181818  C 0.0989583333333333 25.0544507575758  0 24.6496212121212  0 24.1818181818182  C 0 23.7140151515151  0.0989583333333333 23.3091856060606  0.296875 22.9673295454545  C 0.494791666666667 22.6254734848485  0.729166666666667 22.4545454545455  1 22  L 15 22  C 15.2708333333333 22.4545454545455  15.5052083333333 22.6254734848485  15.703125 22.9673295454545  Z M 15.703125 12.6036931818182  C 15.9010416666667 12.9455492424242  16 13.3503787878788  16 13.8181818181818  C 16 14.2859848484848  15.9010416666667 14.6908143939394  15.703125 15.0326704545455  C 15.5052083333333 15.3745265151515  15.2708333333333 15.5454545454545  15 16  L 1 16  C 0.729166666666667 15.5454545454545  0.494791666666667 15.3745265151515  0.296875 15.0326704545455  C 0.0989583333333333 14.6908143939394  0 14.2859848484848  0 13.8181818181818  C 0 13.3503787878788  0.0989583333333333 12.9455492424242  0.296875 12.6036931818182  L 7.296875 0.512784090909093  C 7.49479166666667 0.170928030303027  7.72916666666667 0  8 0  C 8.27083333333333 0  8.50520833333333 0.170928030303027  8.703125 0.512784090909093  L 15.703125 12.6036931818182  Z " fill-rule="nonzero" fill="#f6f6f6" stroke="none" fill-opacity="0.647058823529412" transform="matrix(1 0 0 1 792 1919 )" />
  </g>
</svg>