<?xml version="1.0" encoding="utf-8"?>
<svg version="1.1" xmlns:xlink="http://www.w3.org/1999/xlink" width="20px" height="38px" xmlns="http://www.w3.org/2000/svg">
  <g transform="matrix(1 0 0 1 -1682 -1919 )">
    <path d="M 19.62890625 22.9673295454545  C 19.8763020833333 23.3091856060606  20 23.7140151515151  20 24.1818181818182  C 20 24.6496212121212  19.8763020833333 25.0544507575758  19.62890625 25.3963068181818  L 10.87890625 37.4872159090909  C 10.6315104166667 37.829071969697  10.3385416666667 38  10 38  C 9.66145833333334 38  9.36848958333334 37.829071969697  9.12109375 37.4872159090909  L 0.37109375 25.3963068181818  C 0.123697916666667 25.0544507575758  0 24.6496212121212  0 24.1818181818182  C 0 23.7140151515151  0.123697916666667 23.3091856060606  0.37109375 22.9673295454545  C 0.618489583333333 22.6254734848485  0.911458333333333 22.4545454545455  1.25 22  L 18.75 22  C 19.0885416666667 22.4545454545455  19.3815104166667 22.6254734848485  19.62890625 22.9673295454545  Z M 19.62890625 12.6036931818182  C 19.8763020833333 12.9455492424242  20 13.3503787878788  20 13.8181818181818  C 20 14.2859848484848  19.8763020833333 14.6908143939394  19.62890625 15.0326704545455  C 19.3815104166667 15.3745265151515  19.0885416666667 15.5454545454545  18.75 16  L 1.25 16  C 0.911458333333333 15.5454545454545  0.618489583333333 15.3745265151515  0.37109375 15.0326704545455  C 0.123697916666667 14.6908143939394  0 14.2859848484848  0 13.8181818181818  C 0 13.3503787878788  0.123697916666667 12.9455492424242  0.37109375 12.6036931818182  L 9.12109375 0.512784090909093  C 9.36848958333334 0.170928030303027  9.66145833333334 0  10 0  C 10.3385416666667 0  10.6315104166667 0.170928030303027  10.87890625 0.512784090909093  L 19.62890625 12.6036931818182  Z " fill-rule="nonzero" fill="#f6f6f6" stroke="none" fill-opacity="0.647058823529412" transform="matrix(1 0 0 1 1682 1919 )" />
  </g>
</svg>