<?xml version="1.0" encoding="utf-8"?>
<svg version="1.1" xmlns:xlink="http://www.w3.org/1999/xlink" width="10px" height="38px" xmlns="http://www.w3.org/2000/svg">
  <g transform="matrix(1 0 0 1 -973 -1919 )">
    <path d="M 9.814453125 22.9673295454545  C 9.93815104166667 23.3091856060606  10 23.7140151515151  10 24.1818181818182  C 10 24.6496212121212  9.93815104166667 25.0544507575758  9.814453125 25.3963068181818  L 5.439453125 37.4872159090909  C 5.31575520833333 37.829071969697  5.16927083333333 38  5 38  C 4.83072916666667 38  4.68424479166667 37.829071969697  4.560546875 37.4872159090909  L 0.185546875 25.3963068181818  C 0.0618489583333333 25.0544507575758  0 24.6496212121212  0 24.1818181818182  C 0 23.7140151515151  0.0618489583333333 23.3091856060606  0.185546875 22.9673295454545  C 0.309244791666667 22.6254734848485  0.455729166666667 22.4545454545455  0.625 22.4545454545455  L 9.375 22.4545454545455  C 9.54427083333333 22.4545454545455  9.69075520833333 22.6254734848485  9.814453125 22.9673295454545  Z M 9.814453125 12.6036931818182  C 9.93815104166667 12.9455492424242  10 13.3503787878788  10 13.8181818181818  C 10 14.2859848484848  9.93815104166667 14.6908143939394  9.814453125 15.0326704545455  C 9.69075520833333 15.3745265151515  9.54427083333333 15.5454545454545  9.375 15.5454545454545  L 0.625 15.5454545454545  C 0.455729166666667 15.5454545454545  0.309244791666667 15.3745265151515  0.185546875 15.0326704545455  C 0.0618489583333333 14.6908143939394  0 14.2859848484848  0 13.8181818181818  C 0 13.3503787878788  0.0618489583333333 12.9455492424242  0.185546875 12.6036931818182  L 4.560546875 0.512784090909093  C 4.68424479166667 0.170928030303027  4.83072916666667 0  5 0  C 5.16927083333333 0  5.31575520833333 0.170928030303027  5.439453125 0.512784090909093  L 9.814453125 12.6036931818182  Z " fill-rule="nonzero" fill="#f6f6f6" stroke="none" fill-opacity="0.647058823529412" transform="matrix(1 0 0 1 973 1919 )" />
  </g>
</svg>