<?xml version="1.0" encoding="utf-8"?>
<svg version="1.1" xmlns:xlink="http://www.w3.org/1999/xlink" width="30px" height="38px" xmlns="http://www.w3.org/2000/svg">
  <g transform="matrix(1 0 0 1 -2895 -1904 )">
    <path d="M 29.443359375 22.9673295454545  C 29.814453125 23.3091856060606  30 23.7140151515151  30 24.1818181818182  C 30 24.6496212121212  29.814453125 25.0544507575758  29.443359375 25.3963068181818  L 16.318359375 37.4872159090909  C 15.947265625 37.829071969697  15.5078125 38  15 38  C 14.4921875 38  14.052734375 37.829071969697  13.681640625 37.4872159090909  L 0.556640625 25.3963068181818  C 0.185546875 25.0544507575758  0 24.6496212121212  0 24.1818181818182  C 0 23.7140151515151  0.185546875 23.3091856060606  0.556640625 22.9673295454545  C 0.927734375 22.6254734848485  1.3671875 22.4545454545455  1.875 22  L 28.125 22  C 28.6328125 22.4545454545455  29.072265625 22.6254734848485  29.443359375 22.9673295454545  Z M 29.443359375 12.6036931818182  C 29.814453125 12.9455492424242  30 13.3503787878788  30 13.8181818181818  C 30 14.2859848484848  29.814453125 14.6908143939394  29.443359375 15.0326704545455  C 29.072265625 15.3745265151515  28.6328125 15.5454545454545  28.125 16  L 1.875 16  C 1.3671875 15.5454545454545  0.927734375 15.3745265151515  0.556640625 15.0326704545455  C 0.185546875 14.6908143939394  0 14.2859848484848  0 13.8181818181818  C 0 13.3503787878788  0.185546875 12.9455492424242  0.556640625 12.6036931818182  L 13.681640625 0.512784090909093  C 14.052734375 0.170928030303027  14.4921875 0  15 0  C 15.5078125 0  15.947265625 0.170928030303027  16.318359375 0.512784090909093  L 29.443359375 12.6036931818182  Z " fill-rule="nonzero" fill="#f6f6f6" stroke="none" fill-opacity="0.647058823529412" transform="matrix(1 0 0 1 2895 1904 )" />
  </g>
</svg>