<?xml version="1.0" encoding="utf-8"?>
<svg version="1.1" xmlns:xlink="http://www.w3.org/1999/xlink" width="32px" height="33px" xmlns="http://www.w3.org/2000/svg">
  <g transform="matrix(1 0 0 1 -3448 -966 )">
    <path d="M 24.9375 18.841796875  C 25.2013888888889 18.5696614583333  25.3333333333333 18.2473958333333  25.3333333333333 17.875  L 25.3333333333333 15.125  C 25.3333333333333 14.7526041666667  25.2013888888889 14.4303385416667  24.9375 14.158203125  C 24.6736111111111 13.8860677083333  24.3611111111111 13.75  24 13.75  L 18.6666666666667 13.75  L 18.6666666666667 8.25  C 18.6666666666667 7.87760416666666  18.5347222222222 7.55533854166666  18.2708333333333 7.283203125  C 18.0069444444444 7.01106770833333  17.6944444444444 6.875  17.3333333333333 6.875  L 14.6666666666667 6.875  C 14.3055555555556 6.875  13.9930555555556 7.01106770833333  13.7291666666667 7.283203125  C 13.4652777777778 7.55533854166666  13.3333333333333 7.87760416666666  13.3333333333333 8.25  L 13.3333333333333 13.75  L 8 13.75  C 7.63888888888889 13.75  7.32638888888889 13.8860677083333  7.0625 14.158203125  C 6.79861111111111 14.4303385416667  6.66666666666667 14.7526041666667  6.66666666666667 15.125  L 6.66666666666667 17.875  C 6.66666666666667 18.2473958333333  6.79861111111111 18.5696614583333  7.0625 18.841796875  C 7.32638888888889 19.1139322916667  7.63888888888889 19.25  8 19.25  L 13.3333333333333 19.25  L 13.3333333333333 24.75  C 13.3333333333333 25.1223958333333  13.4652777777778 25.4446614583333  13.7291666666667 25.716796875  C 13.9930555555556 25.9889322916667  14.3055555555556 26.125  14.6666666666667 26.125  L 17.3333333333333 26.125  C 17.6944444444444 26.125  18.0069444444444 25.9889322916667  18.2708333333333 25.716796875  C 18.5347222222222 25.4446614583333  18.6666666666667 25.1223958333333  18.6666666666667 24.75  L 18.6666666666667 19.25  L 24 19.25  C 24.3611111111111 19.25  24.6736111111111 19.1139322916667  24.9375 18.841796875  Z M 29.8541666666667 8.2177734375  C 31.2847222222222 10.7457682291667  32 13.5065104166667  32 16.5  C 32 19.4934895833333  31.2847222222222 22.2542317708333  29.8541666666667 24.7822265625  C 28.4236111111111 27.3102213541667  26.4826388888889 29.3118489583333  24.03125 30.787109375  C 21.5798611111111 32.2623697916667  18.9027777777778 33  16 33  C 13.0972222222222 33  10.4201388888889 32.2623697916667  7.96875 30.787109375  C 5.51736111111111 29.3118489583333  3.57638888888889 27.3102213541667  2.14583333333333 24.7822265625  C 0.715277777777778 22.2542317708333  0 19.4934895833333  0 16.5  C 0 13.5065104166667  0.715277777777778 10.7457682291667  2.14583333333333 8.2177734375  C 3.57638888888889 5.68977864583333  5.51736111111111 3.68815104166666  7.96875 2.212890625  C 10.4201388888889 0.73763020833333  13.0972222222222 0  16 0  C 18.9027777777778 0  21.5798611111111 0.73763020833333  24.03125 2.212890625  C 26.4826388888889 3.68815104166666  28.4236111111111 5.68977864583333  29.8541666666667 8.2177734375  Z " fill-rule="nonzero" fill="#000000" stroke="none" transform="matrix(1 0 0 1 3448 966 )" />
  </g>
</svg>