<?xml version="1.0" encoding="utf-8"?>
<svg version="1.1" xmlns:xlink="http://www.w3.org/1999/xlink" width="1166px" height="724px" xmlns="http://www.w3.org/2000/svg">
  <defs>
    <mask fill="white" id="clip13">
      <path d="M 0 692.227424749164  L 0 11.7725752508361  C 0 5.1799331103679  7.17268847795163 0  16.3015647226174 0  L 405.36557610242 0  L 1129.69843527738 0  C 1138.82731152205 0  1146 5.1799331103679  1146 11.7725752508361  L 1146 692.227424749164  C 1146 698.820066889632  1138.82731152205 704  1129.69843527738 704  L 16.3015647226174 704  C 7.17268847795163 704  0 698.820066889632  0 692.227424749164  Z " fill-rule="evenodd" />
    </mask>
    <filter x="97px" y="3632px" width="1166px" height="724px" filterUnits="userSpaceOnUse" id="filter14">
      <feOffset dx="0" dy="0" in="SourceAlpha" result="shadowOffsetInner" />
      <feGaussianBlur stdDeviation="5" in="shadowOffsetInner" result="shadowGaussian" />
      <feComposite in2="shadowGaussian" operator="atop" in="SourceAlpha" result="shadowComposite" />
      <feColorMatrix type="matrix" values="0 0 0 0 0.666666666666667  0 0 0 0 0.666666666666667  0 0 0 0 0.666666666666667  0 0 0 0.349019607843137 0  " in="shadowComposite" />
    </filter>
    <g id="widget15">
      <path d="M 0 692.227424749164  L 0 11.7725752508361  C 0 5.1799331103679  7.17268847795163 0  16.3015647226174 0  L 405.36557610242 0  L 1129.69843527738 0  C 1138.82731152205 0  1146 5.1799331103679  1146 11.7725752508361  L 1146 692.227424749164  C 1146 698.820066889632  1138.82731152205 704  1129.69843527738 704  L 16.3015647226174 704  C 7.17268847795163 704  0 698.820066889632  0 692.227424749164  Z " fill-rule="nonzero" fill="#ffffff" stroke="none" transform="matrix(1 0 0 1 107 3642 )" />
      <path d="M 0 692.227424749164  L 0 11.7725752508361  C 0 5.1799331103679  7.17268847795163 0  16.3015647226174 0  L 405.36557610242 0  L 1129.69843527738 0  C 1138.82731152205 0  1146 5.1799331103679  1146 11.7725752508361  L 1146 692.227424749164  C 1146 698.820066889632  1138.82731152205 704  1129.69843527738 704  L 16.3015647226174 704  C 7.17268847795163 704  0 698.820066889632  0 692.227424749164  Z " stroke-width="2" stroke="#d7d7d7" fill="none" transform="matrix(1 0 0 1 107 3642 )" mask="url(#clip13)" />
    </g>
  </defs>
  <g transform="matrix(1 0 0 1 -97 -3632 )">
    <use xlink:href="#widget15" filter="url(#filter14)" />
    <use xlink:href="#widget15" />
  </g>
</svg>