<?xml version="1.0" encoding="utf-8"?>
<svg version="1.1" xmlns:xlink="http://www.w3.org/1999/xlink" width="1844px" height="895px" xmlns="http://www.w3.org/2000/svg">
  <defs>
    <mask fill="white" id="clip16">
      <path d="M 0 860.367892976589  L 0 14.6321070234114  C 0 6.43812709030101  11.4162162162162 0  25.9459459459459 0  L 645.189189189192 0  L 1798.05405405405 0  C 1812.58378378378 0  1824 6.43812709030101  1824 14.6321070234114  L 1824 860.367892976589  C 1824 868.561872909699  1812.58378378378 875  1798.05405405405 875  L 25.9459459459459 875  C 11.4162162162162 875  0 868.561872909699  0 860.367892976589  Z " fill-rule="evenodd" />
    </mask>
    <filter x="8px" y="2514px" width="1844px" height="895px" filterUnits="userSpaceOnUse" id="filter17">
      <feOffset dx="0" dy="0" in="SourceAlpha" result="shadowOffsetInner" />
      <feGaussianBlur stdDeviation="5" in="shadowOffsetInner" result="shadowGaussian" />
      <feComposite in2="shadowGaussian" operator="atop" in="SourceAlpha" result="shadowComposite" />
      <feColorMatrix type="matrix" values="0 0 0 0 0.666666666666667  0 0 0 0 0.666666666666667  0 0 0 0 0.666666666666667  0 0 0 0.349019607843137 0  " in="shadowComposite" />
    </filter>
    <g id="widget18">
      <path d="M 0 860.367892976589  L 0 14.6321070234114  C 0 6.43812709030101  11.4162162162162 0  25.9459459459459 0  L 645.189189189192 0  L 1798.05405405405 0  C 1812.58378378378 0  1824 6.43812709030101  1824 14.6321070234114  L 1824 860.367892976589  C 1824 868.561872909699  1812.58378378378 875  1798.05405405405 875  L 25.9459459459459 875  C 11.4162162162162 875  0 868.561872909699  0 860.367892976589  Z " fill-rule="nonzero" fill="#ffffff" stroke="none" transform="matrix(1 0 0 1 18 2524 )" />
      <path d="M 0 860.367892976589  L 0 14.6321070234114  C 0 6.43812709030101  11.4162162162162 0  25.9459459459459 0  L 645.189189189192 0  L 1798.05405405405 0  C 1812.58378378378 0  1824 6.43812709030101  1824 14.6321070234114  L 1824 860.367892976589  C 1824 868.561872909699  1812.58378378378 875  1798.05405405405 875  L 25.9459459459459 875  C 11.4162162162162 875  0 868.561872909699  0 860.367892976589  Z " stroke-width="2" stroke="#d7d7d7" fill="none" transform="matrix(1 0 0 1 18 2524 )" mask="url(#clip16)" />
    </g>
  </defs>
  <g transform="matrix(1 0 0 1 -8 -2514 )">
    <use xlink:href="#widget18" filter="url(#filter17)" />
    <use xlink:href="#widget18" />
  </g>
</svg>